<svg xmlns="http://www.w3.org/2000/svg" version="1.1" xmlns:xlink="http://www.w3.org/1999/xlink" xmlns:svgjs="http://svgjs.dev/svgjs" width="100%" height="100%" viewBox="0 0 1000 600"><rect width="1000" height="600" x="0" y="0" fill="white"/><g><circle r="166.66666666666666" cx="407.9971567789713" cy="430.2194094938809" fill="#000000" transform="matrix(0.517961870621319,0,0,0.517961870621319,0,77.1627507870807)"/><path d="M372.3737663764198 505.2194197194827L334.8419596392082 505.2194197194827Q334.8419596392082 501.5616588933985 335.859771347336 499.49422886126393Q336.87758305546373 497.42679882912944 338.49972046529234 496.9815062068235L338.49972046529234 496.9815062068235L352.01753221386434 492.84664614255445L346.29234135564565 498.7944833119261L397.11931353027626 359.5769256095743Q397.8190590796141 357.7321418885927 399.5366163370797 356.8097500281019Q401.25417359454536 355.9191647834901 403.1943771631639 355.56929200882115Q405.1345807317825 355.21941923415227 406.7249115257321 355.21941923415227L406.7249115257321 355.21941923415227Q408.1244026244078 355.21941923415227 409.58750695484144 355.34664569766824Q411.08241790115414 355.4420655453052 412.7045553109828 355.9191647834901L412.7045553109828 355.9191647834901L468.11168017218836 498.12654437846726L460.79615852002 492.40135352024856L481.15239268257545 496.7588598956706Q481.15239268257545 499.7168751724169 480.2618074379637 501.5616588933985Q479.33941557747283 503.3746359985011 476.82669292303245 505.2194197194827L476.82669292303245 505.2194197194827L430.7707131302507 505.2194197194827Q430.7707131302507 501.5616588933985 431.82033145425754 499.49422886126393Q432.8381431623853 497.42679882912944 434.4602805722139 496.9815062068235L434.4602805722139 496.9815062068235L450.0137157370414 492.84664614255445L447.94628570490687 497.42679882912944L398.96409725125784 372.17234549765544L403.7668962489858 371.6952462594706L357.2656238338982 498.7944833119261L356.59768490043933 492.40135352024856L376.95391906299477 496.7588598956706Q376.95391906299477 499.7168751724169 376.15875366601995 501.5616588933985Q375.3635882690451 503.3746359985011 372.3737663764198 505.2194197194827L372.3737663764198 505.2194197194827ZM435.3508658168257 455.76013202764875L369.63839741082637 455.76013202764875L372.15112006526687 446.1227274163139L432.3928505400794 446.1227274163139L435.3508658168257 455.76013202764875Z " fill="#ffffff" transform="matrix(0.517961870621319,0,0,0.517961870621319,0,77.1627507870807)"/><path d="M690.9519296313143 502.81763441201207L657.9971720410894 502.81763441201207Q657.9971720410894 499.6059419349986 658.8908603825192 497.7906374914692Q659.7845487239491 495.97533304793996 661.2088645181028 495.5843443985644L661.2088645181028 495.5843443985644L673.0781628027178 491.9537355115057L668.051165882175 497.17622675673624L712.679727432327 374.9364183055375Q713.29413816706 373.3166081866959 714.802237243223 372.5067031272751Q716.3103363193858 371.724725828524 718.0139297202363 371.4175204611575Q719.717523121087 371.11031509379103 721.113911154571 371.11031509379103L721.113911154571 371.11031509379103Q722.342732624037 371.11031509379103 723.6274096148425 371.22202613646976Q724.9400143663175 371.30580941847876 726.3643301604712 371.724725828524L726.3643301604712 371.724725828524L775.0144892470577 496.58974378267294L768.5911042930308 491.56274686213015L786.4648711216273 495.38885007387665Q786.4648711216273 497.98613181615707 785.6828938228762 499.6059419349986Q784.8729887634554 501.1978242931705 782.6666956705506 502.81763441201207L782.6666956705506 502.81763441201207L742.2272982208508 502.81763441201207Q742.2272982208508 499.6059419349986 743.1489143229503 497.7906374914692Q744.0426026643801 495.97533304793996 745.4669184585339 495.5843443985644L745.4669184585339 495.5843443985644L759.1235934260085 491.9537355115057L757.3082889824791 495.97533304793996L714.2995375511686 385.9958115307316L718.5166294122906 385.5768951206864L677.6862433132153 497.17622675673624L677.099760339152 491.56274686213015L694.9735271677486 495.38885007387665Q694.9735271677486 497.98613181615707 694.2753331510065 499.6059419349986Q693.5771391342645 501.1978242931705 690.9519296313143 502.81763441201207L690.9519296313143 502.81763441201207ZM746.248895757285 459.3899665706563L688.5501422137216 459.3899665706563L690.7564353066265 450.9278550877426L743.6516140150046 450.9278550877426L746.248895757285 459.3899665706563ZM833.5231478500417 502.81763441201207L797.1332756974459 502.81763441201207Q797.1332756974459 496.39424945798515 800.3449681744594 495.5843443985644L800.3449681744594 495.5843443985644L811.8232778096987 491.7582411868179L809.5890569561241 495.1654279885191L809.5890569561241 420.5703792397981L812.0187721343865 423.5865773921238L800.1494738497715 421.3802842992189Q797.1332756974459 420.7658735644859 797.1332756974459 414.342488610459L797.1332756974459 414.342488610459Q804.7854821209388 413.14159490166264 808.6953686146943 412.6388952096084Q812.6052551084498 412.1361955175541 815.2304646114 412.1361955175541L815.2304646114 412.1361955175541Q820.4529558566305 412.1361955175541 822.6592489495354 414.73347725983456Q824.89346980311 417.35868676278466 824.89346980311 423.1955887427482L824.89346980311 423.1955887427482L824.89346980311 430.6243730808837L823.664648333644 430.0378901068204L825.8988691872185 430.0378901068204Q833.9420642600869 420.7658735644859 844.2753357078693 415.34788799456754Q854.6365349163215 409.92990242464924 864.4950344327192 409.92990242464924L864.4950344327192 409.92990242464924Q887.8147145919038 409.92990242464924 887.8147145919038 442.2981770408108L887.8147145919038 442.2981770408108L887.8147145919038 494.16002860441057L885.4129271743112 491.56274686213015L900.2984236112518 495.38885007387665Q900.2984236112518 498.40504822620227 899.6840128765188 499.9131473023651Q899.0696021417858 501.42124637852794 897.0588033735686 502.81763441201207L897.0588033735686 502.81763441201207L860.6689312209728 502.81763441201207Q860.6689312209728 496.39424945798515 863.8806236979863 495.5843443985644L863.8806236979863 495.5843443985644L873.7391232143841 492.5681462462387L871.7283244461669 495.97533304793996L871.7283244461669 442.68916569018637Q871.7283244461669 421.3802842992189 855.64193430043 421.3802842992189L855.64193430043 421.3802842992189Q849.6095379957786 421.3802842992189 843.688852733806 423.6982884348025Q837.7402397111638 426.01629257038616 832.7132427906209 429.92617906414165Q827.6862458700782 433.83606555789714 824.2790590683769 438.47207382906436L824.2790590683769 438.47207382906436L825.8988691872185 434.6459706173179L825.8988691872185 494.96993366383134L823.4691540089561 492.14922983619346L837.1537567371004 495.38885007387665Q837.1537567371004 498.40504822620227 836.4555627203583 499.9131473023651Q835.7294409429467 501.42124637852794 833.5231478500417 502.81763441201207L833.5231478500417 502.81763441201207ZM956.7962834460187 502.81763441201207L917.1667910557398 502.81763441201207Q917.1667910557398 496.39424945798515 920.4064112934229 495.5843443985644L920.4064112934229 495.5843443985644L932.4712039027256 491.7582411868179L930.236983049151 494.5789450144558L930.236983049151 419.76047418037734L932.6666982274133 422.776672332703L920.1829892080655 420.5703792397981Q917.1667910557398 420.17939059042254 917.1667910557398 413.5325835510382L917.1667910557398 413.5325835510382Q924.0090924198119 412.52718416692966 928.5333896483005 412.02448447487535Q933.0576868767889 411.5217847828211 937.4982008232685 411.5217847828211L937.4982008232685 411.5217847828211Q946.7422896049331 411.5217847828211 946.7422896049331 423.0000944180604L946.7422896049331 423.0000944180604L946.7422896049331 494.16002860441057L944.3125744266708 491.56274686213015L960.3989645724077 495.38885007387665Q960.3989645724077 498.40504822620227 959.7007705556657 499.9131473023651Q959.0025765389237 501.42124637852794 956.7962834460187 502.81763441201207L956.7962834460187 502.81763441201207ZM937.6936951479562 391.6092914253377L937.6936951479562 391.6092914253377Q932.8621925521012 391.6092914253377 930.236983049151 388.90029864037854Q927.6397013068706 386.1913058554194 927.6397013068706 381.7787196696096L927.6397013068706 381.7787196696096Q927.6397013068706 377.3382057231301 930.7396827412053 374.5175018954922Q933.8675919362097 371.724725828524 937.6936951479562 371.724725828524L937.6936951479562 371.724725828524Q942.5251977438112 371.724725828524 945.2341905287703 374.4337186134832Q947.9431833137296 377.1427113984424 947.9431833137296 381.7787196696096L947.9431833137296 381.7787196696096Q947.9431833137296 385.9958115307316 944.8152741187251 388.8165153583695Q941.7152926843903 391.6092914253377 937.6936951479562 391.6092914253377ZM1014.9139533996273 502.81763441201207L978.4961534863619 502.81763441201207Q978.4961534863619 496.39424945798515 981.735773724045 495.5843443985644L981.735773724045 495.5843443985644L993.1861555986146 491.7582411868179L990.9798625057097 494.5789450144558L990.9798625057097 420.5703792397981L993.3816499233023 423.5865773921238L981.5123516386875 421.3802842992189Q978.4961534863619 420.7658735644859 978.4961534863619 414.342488610459L978.4961534863619 414.342488610459Q986.1483599098547 413.14159490166264 990.0582464036102 412.6388952096084Q993.9960606580354 412.1361955175541 996.5933424003158 412.1361955175541L996.5933424003158 412.1361955175541Q1001.8437614062161 412.1361955175541 1004.050054499121 414.73347725983456Q1006.2563475920258 417.35868676278466 1006.2563475920258 423.1955887427482L1006.2563475920258 423.1955887427482L1006.2563475920258 430.6243730808837L1005.446442532605 430.0378901068204L1007.2617469761344 430.0378901068204Q1014.9139533996273 420.7658735644859 1025.0517305227222 415.34788799456754Q1035.2174354064864 409.92990242464924 1044.461524188151 409.92990242464924L1044.461524188151 409.92990242464924Q1055.716411738033 409.92990242464924 1061.1623250686212 417.97309749751764Q1066.5803106385392 426.01629257038616 1066.5803106385392 442.2981770408108L1066.5803106385392 442.2981770408108L1066.5803106385392 494.96993366383134L1064.1785232209468 492.14922983619346L1077.8351981884211 495.38885007387665Q1077.8351981884211 498.40504822620227 1077.137004171679 499.9131473023651Q1076.438810154937 501.42124637852794 1074.4280113867203 502.81763441201207L1074.4280113867203 502.81763441201207L1039.2390329429204 502.81763441201207Q1039.2390329429204 496.39424945798515 1042.4507254199339 495.5843443985644L1042.4507254199339 495.5843443985644L1052.5047192610195 492.5681462462387L1050.2984261681145 495.38885007387665L1050.2984261681145 442.68916569018637Q1050.2984261681145 421.3802842992189 1035.2174354064864 421.3802842992189L1035.2174354064864 421.3802842992189Q1029.5760277512104 421.3802842992189 1023.9625478566043 423.6982884348025Q1018.3211402013286 426.01629257038616 1013.6013486481522 429.92617906414165Q1008.881557094976 433.83606555789714 1005.6419368572929 438.47207382906436L1005.6419368572929 438.47207382906436L1007.2617469761344 434.6459706173179L1007.2617469761344 494.96993366383134L1004.8599595585417 492.14922983619346L1018.5166345260163 495.38885007387665Q1018.5166345260163 498.40504822620227 1017.8184405092743 499.9131473023651Q1017.1202464925323 501.42124637852794 1014.9139533996273 502.81763441201207L1014.9139533996273 502.81763441201207ZM1134.9474687579213 502.81763441201207L1098.5575966053257 502.81763441201207Q1098.5575966053257 496.39424945798515 1101.7692890823387 495.5843443985644L1101.7692890823387 495.5843443985644L1111.8232829234244 492.5681462462387L1109.6169898305197 495.38885007387665L1109.6169898305197 442.68916569018637Q1109.6169898305197 421.3802842992189 1094.5359990688912 421.3802842992189L1094.5359990688912 421.3802842992189Q1086.297309671335 421.3802842992189 1078.3378978804753 426.29557017708294Q1070.4064138502858 431.23878381561667 1065.379416929743 438.27657950437657L1065.379416929743 438.27657950437657L1063.1731238368384 430.0378901068204L1066.189321989164 430.0378901068204Q1074.009094976675 420.7658735644859 1084.1747998604392 415.34788799456754Q1094.3405047442034 409.92990242464924 1103.584593525868 409.92990242464924L1103.584593525868 409.92990242464924Q1115.0349754004378 409.92990242464924 1120.480888731026 417.97309749751764Q1125.898874300944 426.01629257038616 1125.898874300944 442.2981770408108L1125.898874300944 442.2981770408108L1125.898874300944 494.16002860441057L1123.4970868833516 491.56274686213015L1138.3546555596226 495.38885007387665Q1138.3546555596226 498.40504822620227 1137.6564615428806 499.9131473023651Q1136.9582675261386 501.42124637852794 1134.9474687579213 502.81763441201207L1134.9474687579213 502.81763441201207ZM1192.869644386842 505.21942182960476L1192.869644386842 505.21942182960476Q1180.5814296921817 505.21942182960476 1171.449051953196 499.68972521700766Q1162.2887464535402 494.16002860441057 1157.2617495329973 484.32945684868247Q1152.2347526124545 474.4709573322847 1152.2347526124545 461.59625966356117L1152.2347526124545 461.59625966356117Q1152.2347526124545 446.9062575513084 1158.3788599597847 435.2603813520509Q1164.4950395464452 423.5865773921238 1174.772455472888 416.7442760280517Q1185.0219436386615 409.92990242464924 1197.086736247964 409.92990242464924L1197.086736247964 409.92990242464924Q1207.5317187384253 409.92990242464924 1215.267708443927 414.6496939778255Q1223.0316259100987 419.36948553100177 1227.4442120959084 427.8036692532458Q1231.8567982817185 436.26578073615946 1231.8567982817185 447.3251739613536L1231.8567982817185 447.3251739613536Q1231.8567982817185 451.1512771731001 1230.4604102482344 452.4359541639055Q1229.06402221475 453.7485589153805 1227.248717771221 453.7485589153805L1227.248717771221 453.7485589153805L1163.9085565723817 453.7485589153805L1163.9085565723817 447.52066828604137L1218.5911119636194 446.1242802525573L1216.3848188707143 448.33057334546214Q1216.77580752009 438.66756815375214 1214.0668147351307 431.62977246499224Q1211.357821950172 424.59197677623234 1206.4425360723076 420.68209028247685Q1201.499322433774 416.7442760280517 1194.8804431550593 416.7442760280517L1194.8804431550593 416.7442760280517Q1183.8210499298652 416.7442760280517 1176.7832542411052 427.02169195449466Q1169.745458552345 437.271180120268 1169.745458552345 455.9548520082854L1169.745458552345 455.9548520082854Q1169.745458552345 468.0196446175881 1173.2643563967254 476.98445579255605Q1176.7832542411052 485.9213392068544 1183.5976278445073 490.9483361273971Q1190.4399292085795 495.97533304793996 1200.10293440029 495.97533304793996L1200.10293440029 495.97533304793996Q1208.146129473158 495.97533304793996 1215.5749138112938 491.8699522294966Q1223.0316259100987 487.73664365038366 1228.8406001293924 480.30785931224824L1228.8406001293924 480.30785931224824L1231.4658096323428 485.334856232791Q1227.248717771221 491.36725253744237 1221.0208271418815 495.8915497659309Q1214.7650087518728 500.4158469944194 1207.6434297811038 502.81763441201207Q1200.4939230496652 505.21942182960476 1192.869644386842 505.21942182960476ZM1294.805970831182 502.81763441201207L1252.7746910233104 502.81763441201207Q1252.7746910233104 499.6059419349986 1253.69630712541 497.7906374914692Q1254.5899954668398 495.97533304793996 1255.9863835003239 495.5843443985644L1255.9863835003239 495.5843443985644L1269.8664805531557 491.9537355115057L1266.6547880761423 495.1654279885191L1266.6547880761423 381.7787196696096L1269.4754919037805 385.18590647131083L1253.1936074333553 381.35980325956433Q1253.1936074333553 378.53909943192645 1253.8918014500973 376.83550603107585Q1254.5899954668398 375.13191263022526 1256.6007942350566 373.9310189214289L1256.6007942350566 373.9310189214289L1308.0716571492812 373.9310189214289Q1321.141849142692 373.9310189214289 1329.883238232303 378.45531614991745Q1338.6525550825831 382.97961337840593 1343.1768523110713 390.5201087592201Q1347.70114953956 398.0606041400343 1347.70114953956 407.1091985970113L1347.70114953956 407.1091985970113Q1347.70114953956 417.35868676278466 1342.059741884284 426.40728121976167Q1336.4183342290085 435.4558756767387 1325.9733517385475 441.09728333201446Q1315.5283692480862 446.7107632266206 1300.8383671358333 446.7107632266206L1300.8383671358333 446.7107632266206Q1295.8113702152905 446.7107632266206 1290.169962560015 446.01256920987856Q1284.5564826654086 445.31437519313647 1279.9204743942414 443.8900593989827L1279.9204743942414 443.8900593989827L1283.3555889566123 443.8900593989827L1283.3555889566123 496.1708273726277L1278.915075010133 491.56274686213015L1298.4365797182409 495.38885007387665Q1298.4365797182409 498.40504822620227 1297.7104579408292 499.9969305843742Q1297.0122639240867 501.6167407032157 1294.805970831182 502.81763441201207L1294.805970831182 502.81763441201207ZM1283.3555889566123 382.5606969683607L1283.3555889566123 438.08108517968884L1280.3393908042867 434.6459706173179Q1283.1321668712549 435.84686432611426 1289.0807798938972 436.572986103526Q1295.00146515587 437.271180120268 1300.6428728111455 437.271180120268L1300.6428728111455 437.271180120268Q1310.5013723275433 437.271180120268 1316.8130462388917 433.44507690852157Q1323.1526479109093 429.61897369677513 1326.3643403879228 423.391083067436Q1329.6039606256059 417.16319243809687 1329.6039606256059 409.7064803392917L1329.6039606256059 409.7064803392917Q1329.6039606256059 396.6362883458805 1322.063465244792 389.7102036997993Q1314.5229698639778 382.78411905371814 1301.4527778705665 382.78411905371814L1301.4527778705665 382.78411905371814Q1295.4203815659152 382.78411905371814 1289.974468235327 383.56609635246923Q1284.5564826654086 384.37600141189006 1280.5348851289746 385.38140079599856L1280.5348851289746 385.38140079599856L1283.3555889566123 382.5606969683607ZM1354.73894522832 505.0239275049169L1354.73894522832 505.0239275049169Q1350.2984312818403 505.0239275049169 1344.266034977189 500.80683564379495Q1338.2336386725378 496.58974378267294 1331.5030483511446 488.5465487098045Q1324.7724580297509 480.503353636936 1317.8184456230001 468.82954967700886Q1310.892360976919 457.18367347775137 1304.468976022892 442.4936713654986L1304.468976022892 442.4936713654986L1316.7292629568824 438.27657950437657Q1325.3589410038144 453.1620759413172 1334.4075354607912 465.72956824267413Q1343.4561299177685 478.2970605440311 1351.9182414006818 486.9267385909629Q1360.352425122926 495.5843443985644 1366.580315752265 498.99153120026557L1366.580315752265 498.99153120026557Q1364.3740226593604 501.42124637852794 1361.2740412250255 503.20862306138764Q1358.1461320300214 505.0239275049169 1354.73894522832 505.0239275049169ZM1398.557601719051 505.21942182960476L1398.557601719051 505.21942182960476Q1389.1180186126985 505.21942182960476 1382.8901279833594 499.68972521700766Q1376.6343095933507 494.16002860441057 1376.6343095933507 484.91593982274577L1376.6343095933507 484.91593982274577Q1376.6343095933507 473.4655579481761 1383.9793106494772 466.23226793472844Q1391.3243117056036 458.97105016061107 1406.0143138178564 455.5638633589098L1406.0143138178564 455.5638633589098L1432.3501921293664 449.5314670542585L1429.7249826264165 451.7377601471634L1429.7249826264165 436.65676938553503Q1429.7249826264165 426.01629257038616 1426.1223015000273 421.07307893185236Q1422.4916926129686 416.1577930539883 1414.8394861894758 416.1577930539883L1414.8394861894758 416.1577930539883Q1405.595397407811 416.1577930539883 1400.5684004872683 421.6874896665854Q1395.5414035667254 427.21718627918244 1395.5414035667254 437.6621687696436L1395.5414035667254 437.6621687696436Q1394.536004182617 438.66756815375214 1392.7206997390876 439.2819788884851Q1390.9333230562283 439.8684618625485 1389.1180186126985 439.8684618625485L1389.1180186126985 439.8684618625485Q1385.6829040503276 439.8684618625485 1383.6721052821108 437.8576630943314Q1381.6613065138936 435.84686432611426 1381.6613065138936 432.439677524413L1381.6613065138936 432.439677524413Q1381.6613065138936 425.7928704850287 1386.2973147850607 420.7658735644859Q1390.9333230562283 415.7388766439431 1399.0603014111057 412.8343895342961Q1407.2152075266526 409.92990242464924 1417.2692013677383 409.92990242464924L1417.2692013677383 409.92990242464924Q1432.154697804679 409.92990242464924 1439.0807824507601 417.35868676278466Q1446.0068670968412 424.78747110092013 1446.0068670968412 441.09728333201446L1446.0068670968412 441.09728333201446L1446.0068670968412 488.3510543851167Q1446.0068670968412 491.7582411868179 1447.431182890995 493.57354563034727Q1448.827570924479 495.38885007387665 1451.452780427429 495.38885007387665L1451.452780427429 495.38885007387665Q1453.659073520334 495.38885007387665 1456.3680663052933 494.16002860441057Q1459.0770590902525 492.9591348956142 1460.892363533782 491.56274686213015L1460.892363533782 491.56274686213015L1462.3166793279356 496.98073243204846Q1459.0770590902525 500.80683564379495 1454.0500621697097 503.0131287366998Q1449.0230652491668 505.21942182960476 1444.4149847386693 505.21942182960476L1444.4149847386693 505.21942182960476Q1437.9636720239728 505.21942182960476 1434.3609908975836 501.1140410111614Q1430.7303820105253 496.98073243204846 1430.7303820105253 489.35645376922525L1430.7303820105253 489.35645376922525L1429.9204769511043 489.35645376922525Q1424.3069970564984 496.98073243204846 1416.068307658942 501.1140410111614Q1407.8016905007162 505.21942182960476 1398.557601719051 505.21942182960476ZM1406.2098081425443 495.7798387232521L1406.2098081425443 495.7798387232521Q1413.4430981559917 495.7798387232521 1420.089905195376 492.14922983619346Q1426.7087844740909 488.5465487098045 1431.1492984205702 482.0952359951079L1431.1492984205702 482.0952359951079L1429.9204769511043 485.5303505574788L1429.9204769511043 455.3683690342221L1432.5456864540542 455.7593576835976L1409.6169949442456 461.20527101418566Q1400.9873168973136 463.21606978240277 1396.463019668825 468.1313556602668Q1391.9387224403363 473.04664153813087 1391.9387224403363 480.503353636936L1391.9387224403363 480.503353636936Q1391.9387224403363 487.5411493256959 1395.7368978914133 491.64653014413915Q1399.5630011031599 495.7798387232521 1406.2098081425443 495.7798387232521ZM1512.3632264480061 502.81763441201207L1475.9733542954104 502.81763441201207Q1475.9733542954104 496.39424945798515 1479.1850467724234 495.5843443985644L1479.1850467724234 495.5843443985644L1490.6633564076628 491.7582411868179L1488.4570633147578 495.1654279885191L1488.4570633147578 420.5703792397981L1490.8588507323507 423.5865773921238L1478.9895524477356 421.3802842992189Q1475.9733542954104 420.7658735644859 1475.9733542954104 414.342488610459L1475.9733542954104 414.342488610459Q1483.6255607189032 413.14159490166264 1487.5354472126587 412.6388952096084Q1491.4732614670838 412.1361955175541 1494.0705432093641 412.1361955175541L1494.0705432093641 412.1361955175541Q1499.2930344545948 412.1361955175541 1501.5272553081695 414.73347725983456Q1503.7335484010741 417.35868676278466 1503.7335484010741 423.1955887427482L1503.7335484010741 423.1955887427482L1503.7335484010741 430.6243730808837L1502.532654692278 430.0378901068204L1504.738947785183 430.0378901068204Q1512.7821428580514 420.7658735644859 1523.1433420665035 415.34788799456754Q1533.4766135142859 409.92990242464924 1543.3351130306837 409.92990242464924L1543.3351130306837 409.92990242464924Q1566.654793189868 409.92990242464924 1566.654793189868 442.2981770408108L1566.654793189868 442.2981770408108L1566.654793189868 494.16002860441057L1564.2530057722756 491.56274686213015L1579.1385022092163 495.38885007387665Q1579.1385022092163 498.40504822620227 1578.5240914744832 499.9131473023651Q1577.9376085004196 501.42124637852794 1575.9268097322024 502.81763441201207L1575.9268097322024 502.81763441201207L1539.509009818937 502.81763441201207Q1539.509009818937 496.39424945798515 1542.7486300566202 495.5843443985644L1542.7486300566202 495.5843443985644L1552.5792018123484 492.5681462462387L1550.5684030441312 495.97533304793996L1550.5684030441312 442.68916569018637Q1550.5684030441312 421.3802842992189 1534.4820128983943 421.3802842992189L1534.4820128983943 421.3802842992189Q1528.449616593743 421.3802842992189 1522.5289313317703 423.6982884348025Q1516.6082460697976 426.01629257038616 1511.5812491492547 429.92617906414165Q1506.5542522287124 433.83606555789714 1503.119137666341 438.47207382906436L1503.119137666341 438.47207382906436L1504.738947785183 434.6459706173179L1504.738947785183 494.96993366383134L1502.3092326069204 492.14922983619346L1515.993835335065 495.38885007387665Q1515.993835335065 498.40504822620227 1515.2956413183229 499.9131473023651Q1514.5974473015804 501.42124637852794 1512.3632264480061 502.81763441201207L1512.3632264480061 502.81763441201207ZM1631.419270182861 502.81763441201207L1594.4149872955322 502.81763441201207Q1594.4149872955322 499.4104476103108 1595.2248923549528 497.7906374914692Q1596.0347974143738 496.1708273726277 1597.6266797725457 495.5843443985644L1597.6266797725457 495.5843443985644L1609.6914723818481 491.7582411868179L1607.4851792889435 494.5789450144558L1607.4851792889435 363.68153075565556L1609.886966706536 366.69772890798123L1597.4311854478578 364.46350805440665Q1594.4149872955322 363.87702508034334 1594.4149872955322 357.42571236564675L1594.4149872955322 357.42571236564675Q1601.0617943349166 356.4203129815382 1605.6698748454141 355.8338300074749Q1610.3058831165813 355.21941927274185 1614.5229749777036 355.21941927274185L1614.5229749777036 355.21941927274185Q1623.7670637593678 355.21941927274185 1623.7670637593678 366.893223232669L1623.7670637593678 366.893223232669L1623.7670637593678 494.96993366383134L1621.169782017088 492.14922983619346L1635.0219513092502 495.38885007387665Q1635.0219513092502 498.40504822620227 1634.3237572925082 499.9131473023651Q1633.6255632757661 501.42124637852794 1631.419270182861 502.81763441201207L1631.419270182861 502.81763441201207ZM1678.0586305012303 505.21942182960476L1678.0586305012303 505.21942182960476Q1672.6406449313117 505.21942182960476 1665.1001495504975 500.49963027642843Q1657.5596541696837 495.7798387232521 1647.7011546532858 484.32945684868247Q1637.842655136888 472.8511472134431 1624.9679574681645 452.74315953127194L1624.9679574681645 452.74315953127194L1659.1515365278556 422.58117800801523L1658.1461371437467 424.78747110092013L1646.6957552691774 421.3802842992189Q1646.6957552691774 416.9676981134091 1649.3209647721274 413.728077875726L1649.3209647721274 413.728077875726L1684.2865211305693 413.728077875726Q1684.2865211305693 417.74967541216023 1683.7000381565063 419.25777448832304Q1683.085627421773 420.7658735644859 1681.0748286535559 421.3802842992189L1681.0748286535559 421.3802842992189L1664.988438507819 426.79826986913724L1675.8523374083252 420.37488491511033L1637.842655136888 454.16747532542576L1639.6579595804174 448.9170563195255Q1646.6957552691774 459.3899665706563 1655.129938991421 468.7457663949998Q1663.5920504743349 478.07363845867366 1672.4451506066239 485.11143414743356Q1681.2703229782437 492.14922983619346 1689.3135180511122 496.1708273726277L1689.3135180511122 496.1708273726277Q1689.3135180511122 500.1924249090619 1686.1018255740987 502.70592336933333Q1682.8901330970853 505.21942182960476 1678.0586305012303 505.21942182960476Z " fill="#000000" transform="matrix(0.517961870621319,0,0,0.517961870621319,0,77.1627507870807)"/></g></svg>